{
 "accessors": [
  {
   "bufferView": 0,
   "componentType": 5126,
   "count": 72,
   "max": [
    0.25,
    0.5,
    0.03
   ],
   "min": [
    -0.25,
    0.0,
    -0.03
   ],
   "type": "VEC3"
  },
  {
   "bufferView": 1,
   "componentType": 5126,
   "count": 72,
   "type": "VEC3"
  },
  {
   "bufferView": 2,
   "componentType": 5123,
   "count": 132,
   "type": "SCALAR"
  }
 ],
 "asset": {
  "generator": "gen_props.py",
  "version": "2.0"
 },
 "bufferViews": [
  {
   "buffer": 0,
   "byteLength": 864,
   "byteOffset": 0,
   "target": 34962
  },
  {
   "buffer": 0,
   "byteLength": 864,
   "byteOffset": 864,
   "target": 34962
  },
  {
   "buffer": 0,
   "byteLength": 264,
   "byteOffset": 1728,
   "target": 34963
  }
 ],
 "buffers": [
  {
   "byteLength": 1992,
   "uri": "coin.bin"
  }
 ],
 "meshes": [
  {
   "name": "coin",
   "primitives": [
    {
     "attributes": {
      "NORMAL": 1,
      "POSITION": 0
     },
     "indices": 2
    }
   ]
  }
 ],
 "nodes": [
  {
   "mesh": 0,
   "name": "coin"
  }
 ],
 "scene": 0,
 "scenes": [
  {
   "nodes": [
    0
   ]
  }
 ]
}
