{
 "accessors": [
  {
   "bufferView": 0,
   "componentType": 5126,
   "count": 54,
   "max": [
    0.22,
    0.4366577056626858,
    0.7
   ],
   "min": [
    -0.20673237657289986,
    0.0033422943373142278,
    -0.7
   ],
   "type": "VEC3"
  },
  {
   "bufferView": 1,
   "componentType": 5126,
   "count": 54,
   "type": "VEC3"
  },
  {
   "bufferView": 2,
   "componentType": 5123,
   "count": 96,
   "type": "SCALAR"
  }
 ],
 "asset": {
  "generator": "gen_props.py",
  "version": "2.0"
 },
 "bufferViews": [
  {
   "buffer": 0,
   "byteLength": 648,
   "byteOffset": 0,
   "target": 34962
  },
  {
   "buffer": 0,
   "byteLength": 648,
   "byteOffset": 648,
   "target": 34962
  },
  {
   "buffer": 0,
   "byteLength": 192,
   "byteOffset": 1296,
   "target": 34963
  }
 ],
 "buffers": [
  {
   "byteLength": 1488,
   "uri": "log.bin"
  }
 ],
 "meshes": [
  {
   "name": "log",
   "primitives": [
    {
     "attributes": {
      "NORMAL": 1,
      "POSITION": 0
     },
     "indices": 2
    }
   ]
  }
 ],
 "nodes": [
  {
   "mesh": 0,
   "name": "log"
  }
 ],
 "scene": 0,
 "scenes": [
  {
   "nodes": [
    0
   ]
  }
 ]
}
