{
 "accessors": [
  {
   "bufferView": 0,
   "componentType": 5126,
   "count": 48,
   "max": [
    0.30000000000000004,
    0.44000000000000006,
    0.24
   ],
   "min": [
    -0.3,
    0.0,
    -0.24
   ],
   "type": "VEC3"
  },
  {
   "bufferView": 1,
   "componentType": 5126,
   "count": 48,
   "type": "VEC3"
  },
  {
   "bufferView": 2,
   "componentType": 5123,
   "count": 72,
   "type": "SCALAR"
  }
 ],
 "asset": {
  "generator": "gen_props.py",
  "version": "2.0"
 },
 "bufferViews": [
  {
   "buffer": 0,
   "byteLength": 576,
   "byteOffset": 0,
   "target": 34962
  },
  {
   "buffer": 0,
   "byteLength": 576,
   "byteOffset": 576,
   "target": 34962
  },
  {
   "buffer": 0,
   "byteLength": 144,
   "byteOffset": 1152,
   "target": 34963
  }
 ],
 "buffers": [
  {
   "byteLength": 1296,
   "uri": "rock_small.bin"
  }
 ],
 "meshes": [
  {
   "name": "rock_small",
   "primitives": [
    {
     "attributes": {
      "NORMAL": 1,
      "POSITION": 0
     },
     "indices": 2
    }
   ]
  }
 ],
 "nodes": [
  {
   "mesh": 0,
   "name": "rock_small"
  }
 ],
 "scene": 0,
 "scenes": [
  {
   "nodes": [
    0
   ]
  }
 ]
}
