{
 "accessors": [
  {
   "bufferView": 0,
   "componentType": 5126,
   "count": 88,
   "max": [
    0.3,
    0.5800000000000001,
    0.2853169548885461
   ],
   "min": [
    -0.3,
    0.0,
    -0.2853169548885461
   ],
   "type": "VEC3"
  },
  {
   "bufferView": 1,
   "componentType": 5126,
   "count": 88,
   "type": "VEC3"
  },
  {
   "bufferView": 2,
   "componentType": 5123,
   "count": 138,
   "type": "SCALAR"
  }
 ],
 "asset": {
  "generator": "gen_props.py",
  "version": "2.0"
 },
 "bufferViews": [
  {
   "buffer": 0,
   "byteLength": 1056,
   "byteOffset": 0,
   "target": 34962
  },
  {
   "buffer": 0,
   "byteLength": 1056,
   "byteOffset": 1056,
   "target": 34962
  },
  {
   "buffer": 0,
   "byteLength": 276,
   "byteOffset": 2112,
   "target": 34963
  }
 ],
 "buffers": [
  {
   "byteLength": 2388,
   "uri": "mushroom.bin"
  }
 ],
 "meshes": [
  {
   "name": "mushroom",
   "primitives": [
    {
     "attributes": {
      "NORMAL": 1,
      "POSITION": 0
     },
     "indices": 2
    }
   ]
  }
 ],
 "nodes": [
  {
   "mesh": 0,
   "name": "mushroom"
  }
 ],
 "scene": 0,
 "scenes": [
  {
   "nodes": [
    0
   ]
  }
 ]
}
