{
 "accessors": [
  {
   "bufferView": 0,
   "componentType": 5126,
   "count": 40,
   "max": [
    0.55,
    0.9,
    0.5230810839623345
   ],
   "min": [
    -0.55,
    0.0,
    -0.5230810839623345
   ],
   "type": "VEC3"
  },
  {
   "bufferView": 1,
   "componentType": 5126,
   "count": 40,
   "type": "VEC3"
  },
  {
   "bufferView": 2,
   "componentType": 5123,
   "count": 54,
   "type": "SCALAR"
  }
 ],
 "asset": {
  "generator": "gen_props.py",
  "version": "2.0"
 },
 "bufferViews": [
  {
   "buffer": 0,
   "byteLength": 480,
   "byteOffset": 0,
   "target": 34962
  },
  {
   "buffer": 0,
   "byteLength": 480,
   "byteOffset": 480,
   "target": 34962
  },
  {
   "buffer": 0,
   "byteLength": 108,
   "byteOffset": 960,
   "target": 34963
  }
 ],
 "buffers": [
  {
   "byteLength": 1068,
   "uri": "tree_canopy.bin"
  }
 ],
 "meshes": [
  {
   "name": "tree_canopy",
   "primitives": [
    {
     "attributes": {
      "NORMAL": 1,
      "POSITION": 0
     },
     "indices": 2
    }
   ]
  }
 ],
 "nodes": [
  {
   "mesh": 0,
   "name": "tree_canopy"
  }
 ],
 "scene": 0,
 "scenes": [
  {
   "nodes": [
    0
   ]
  }
 ]
}
