{"asset":{"version":"2.0","generator":"engine character generator"},"buffers":[{"uri":"character.bin","byteLength":9660}],"bufferViews":[{"buffer":0,"byteOffset":0,"byteLength":2016,"target":34962},{"buffer":0,"byteOffset":2016,"byteLength":2016,"target":34962},{"buffer":0,"byteOffset":4032,"byteLength":1344,"target":34962},{"buffer":0,"byteOffset":5376,"byteLength":2688,"target":34962},{"buffer":0,"byteOffset":8064,"byteLength":504,"target":34963},{"buffer":0,"byteOffset":8568,"byteLength":448},{"buffer":0,"byteOffset":9016,"byteLength":20},{"buffer":0,"byteOffset":9036,"byteLength":80},{"buffer":0,"byteOffset":9116,"byteLength":12},{"buffer":0,"byteOffset":9128,"byteLength":48},{"buffer":0,"byteOffset":9176,"byteLength":12},{"buffer":0,"byteOffset":9188,"byteLength":48},{"buffer":0,"byteOffset":9236,"byteLength":12},{"buffer":0,"byteOffset":9248,"byteLength":48},{"buffer":0,"byteOffset":9296,"byteLength":12},{"buffer":0,"byteOffset":9308,"byteLength":48},{"buffer":0,"byteOffset":9356,"byteLength":12},{"buffer":0,"byteOffset":9368,"byteLength":48},{"buffer":0,"byteOffset":9416,"byteLength":12},{"buffer":0,"byteOffset":9428,"byteLength":48},{"buffer":0,"byteOffset":9476,"byteLength":16},{"buffer":0,"byteOffset":9492,"byteLength":48},{"buffer":0,"byteOffset":9540,"byteLength":12},{"buffer":0,"byteOffset":9552,"byteLength":48},{"buffer":0,"byteOffset":9600,"byteLength":12},{"buffer":0,"byteOffset":9612,"byteLength":48}],"accessors":[{"bufferView":0,"componentType":5126,"count":168,"type":"VEC3","min":[-0.37,0.0,-0.12],"max":[0.37,1.8399999999999999,0.12]},{"bufferView":1,"componentType":5126,"count":168,"type":"VEC3"},{"bufferView":2,"componentType":5123,"count":168,"type":"VEC4"},{"bufferView":3,"componentType":5126,"count":168,"type":"VEC4"},{"bufferView":4,"componentType":5123,"count":252,"type":"SCALAR"},{"bufferView":5,"componentType":5126,"count":7,"type":"MAT4"},{"bufferView":6,"componentType":5126,"count":5,"type":"SCALAR","min":[0.0],"max":[2.0]},{"bufferView":7,"componentType":5126,"count":5,"type":"VEC4"},{"bufferView":8,"componentType":5126,"count":3,"type":"SCALAR","min":[0.0],"max":[2.0]},{"bufferView":9,"componentType":5126,"count":3,"type":"VEC4"},{"bufferView":10,"componentType":5126,"count":3,"type":"SCALAR","min":[0.0],"max":[2.0]},{"bufferView":11,"componentType":5126,"count":3,"type":"VEC4"},{"bufferView":12,"componentType":5126,"count":3,"type":"SCALAR","min":[0.0],"max":[0.8]},{"bufferView":13,"componentType":5126,"count":3,"type":"VEC4"},{"bufferView":14,"componentType":5126,"count":3,"type":"SCALAR","min":[0.0],"max":[0.8]},{"bufferView":15,"componentType":5126,"count":3,"type":"VEC4"},{"bufferView":16,"componentType":5126,"count":3,"type":"SCALAR","min":[0.0],"max":[0.8]},{"bufferView":17,"componentType":5126,"count":3,"type":"VEC4"},{"bufferView":18,"componentType":5126,"count":3,"type":"SCALAR","min":[0.0],"max":[0.8]},{"bufferView":19,"componentType":5126,"count":3,"type":"VEC4"},{"bufferView":20,"componentType":5126,"count":4,"type":"SCALAR","min":[0.0],"max":[0.6]},{"bufferView":21,"componentType":5126,"count":4,"type":"VEC3"},{"bufferView":22,"componentType":5126,"count":3,"type":"SCALAR","min":[0.0],"max":[0.6]},{"bufferView":23,"componentType":5126,"count":3,"type":"VEC4"},{"bufferView":24,"componentType":5126,"count":3,"type":"SCALAR","min":[0.0],"max":[0.6]},{"bufferView":25,"componentType":5126,"count":3,"type":"VEC4"}],"nodes":[{"name":"root","translation":[0.0,1.0,0.0],"children":[1,5,6]},{"name":"spine","translation":[0.0,0.30000000000000004,0.0],"children":[2,3,4]},{"name":"head","translation":[0.0,0.30000000000000004,0.0]},{"name":"armL","translation":[0.25,0.1499999999999999,0.0]},{"name":"armR","translation":[-0.25,0.1499999999999999,0.0]},{"name":"legL","translation":[0.12,0.0,0.0]},{"name":"legR","translation":[-0.12,0.0,0.0]},{"name":"characterMesh","mesh":0,"skin":0}],"scenes":[{"nodes":[0,7]}],"scene":0,"skins":[{"skeleton":0,"joints":[0,1,2,3,4,5,6],"inverseBindMatrices":5}],"meshes":[{"name":"character","primitives":[{"attributes":{"POSITION":0,"NORMAL":1,"JOINTS_0":2,"WEIGHTS_0":3},"indices":4}]}],"animations":[{"name":"idle","samplers":[{"input":6,"output":7,"interpolation":"LINEAR"},{"input":8,"output":9,"interpolation":"LINEAR"},{"input":10,"output":11,"interpolation":"LINEAR"}],"channels":[{"sampler":0,"target":{"node":1,"path":"rotation"}},{"sampler":1,"target":{"node":3,"path":"rotation"}},{"sampler":2,"target":{"node":4,"path":"rotation"}}]},{"name":"walk","samplers":[{"input":12,"output":13,"interpolation":"LINEAR"},{"input":14,"output":15,"interpolation":"LINEAR"},{"input":16,"output":17,"interpolation":"LINEAR"},{"input":18,"output":19,"interpolation":"LINEAR"}],"channels":[{"sampler":0,"target":{"node":5,"path":"rotation"}},{"sampler":1,"target":{"node":6,"path":"rotation"}},{"sampler":2,"target":{"node":3,"path":"rotation"}},{"sampler":3,"target":{"node":4,"path":"rotation"}}]},{"name":"jump","samplers":[{"input":20,"output":21,"interpolation":"LINEAR"},{"input":22,"output":23,"interpolation":"LINEAR"},{"input":24,"output":25,"interpolation":"LINEAR"}],"channels":[{"sampler":0,"target":{"node":0,"path":"translation"}},{"sampler":1,"target":{"node":5,"path":"rotation"}},{"sampler":2,"target":{"node":6,"path":"rotation"}}]}]}